<?xml version="1.0" encoding="UTF-8" standalone="no"?>
<!DOCTYPE svg PUBLIC "-//W3C//DTD SVG 1.1//EN" "http://www.w3.org/Graphics/SVG/1.1/DTD/svg11.dtd">
<svg width="100%" height="100%" viewBox="0 0 85 17" version="1.1" xmlns="http://www.w3.org/2000/svg" xmlns:xlink="http://www.w3.org/1999/xlink" xml:space="preserve" xmlns:serif="http://www.serif.com/" style="fill-rule:evenodd;clip-rule:evenodd;stroke-linecap:round;stroke-linejoin:round;stroke-miterlimit:1.5;">
    <g transform="matrix(0.723922,0,0,0.833578,-218.949,-80.4059)">
        <path d="M418.023,101.757C418.023,99.274 415.702,97.259 412.843,97.259L308.55,97.259C305.691,97.259 303.37,99.274 303.37,101.757L303.37,110.755C303.37,113.238 305.691,115.253 308.55,115.253L412.843,115.253C415.702,115.253 418.023,113.238 418.023,110.755L418.023,101.757Z" style="fill:white;stroke:rgb(111,27,69);stroke-width:1.71px;"/>
    </g>
    <g transform="matrix(0.691147,0,0,0.691147,-211.535,-65.5096)">
        <g transform="matrix(16,0,0,16,313.301,112.712)">
            <path d="M0.3,-0.608C0.262,-0.608 0.232,-0.586 0.21,-0.541C0.188,-0.496 0.177,-0.434 0.177,-0.355C0.177,-0.19 0.22,-0.107 0.306,-0.107C0.344,-0.107 0.383,-0.119 0.425,-0.143L0.425,-0.025C0.39,-0.002 0.345,0.01 0.291,0.01C0.211,0.01 0.149,-0.022 0.106,-0.086C0.063,-0.15 0.041,-0.24 0.041,-0.356C0.041,-0.472 0.063,-0.562 0.108,-0.627C0.152,-0.692 0.214,-0.724 0.293,-0.724C0.319,-0.724 0.344,-0.721 0.368,-0.713C0.392,-0.706 0.417,-0.694 0.445,-0.676L0.401,-0.568C0.386,-0.578 0.371,-0.587 0.354,-0.595C0.337,-0.604 0.319,-0.608 0.3,-0.608Z" style="fill:rgb(111,27,69);fill-rule:nonzero;"/>
        </g>
        <g transform="matrix(16,0,0,16,320.465,112.712)">
            <path d="M0.554,-0.358C0.554,-0.24 0.532,-0.149 0.488,-0.085C0.444,-0.022 0.38,0.01 0.298,0.01C0.215,0.01 0.152,-0.022 0.107,-0.085C0.063,-0.149 0.041,-0.24 0.041,-0.359C0.041,-0.477 0.063,-0.568 0.107,-0.631C0.152,-0.694 0.215,-0.725 0.299,-0.725C0.381,-0.725 0.444,-0.693 0.488,-0.63C0.532,-0.567 0.554,-0.476 0.554,-0.358ZM0.177,-0.358C0.177,-0.277 0.187,-0.215 0.208,-0.172C0.228,-0.129 0.258,-0.108 0.298,-0.108C0.378,-0.108 0.418,-0.191 0.418,-0.358C0.418,-0.525 0.378,-0.608 0.299,-0.608C0.258,-0.608 0.228,-0.587 0.208,-0.544C0.187,-0.502 0.177,-0.44 0.177,-0.358Z" style="fill:rgb(111,27,69);fill-rule:nonzero;"/>
        </g>
        <g transform="matrix(16,0,0,16,329.988,112.712)">
            <path d="M0.563,-0L0.401,-0L0.18,-0.517L0.174,-0.517C0.182,-0.478 0.186,-0.435 0.186,-0.39L0.186,-0L0.063,-0L0.063,-0.714L0.226,-0.714L0.445,-0.202L0.45,-0.202C0.444,-0.236 0.441,-0.277 0.441,-0.324L0.441,-0.714L0.563,-0.714L0.563,-0Z" style="fill:rgb(111,27,69);fill-rule:nonzero;"/>
        </g>
        <g transform="matrix(16,0,0,16,340.004,112.712)">
            <path d="M0.388,-0.197C0.388,-0.13 0.371,-0.079 0.338,-0.043C0.304,-0.008 0.255,0.01 0.192,0.01C0.13,0.01 0.077,-0.002 0.033,-0.027L0.033,-0.158C0.087,-0.123 0.136,-0.106 0.18,-0.106C0.206,-0.106 0.225,-0.113 0.238,-0.127C0.25,-0.141 0.257,-0.16 0.257,-0.184C0.257,-0.208 0.249,-0.23 0.234,-0.249C0.219,-0.269 0.193,-0.291 0.158,-0.315C0.128,-0.336 0.104,-0.356 0.089,-0.376C0.073,-0.395 0.061,-0.417 0.052,-0.441C0.043,-0.465 0.039,-0.493 0.039,-0.525C0.039,-0.586 0.056,-0.635 0.09,-0.67C0.124,-0.706 0.17,-0.724 0.227,-0.724C0.282,-0.724 0.334,-0.709 0.385,-0.678L0.341,-0.572C0.325,-0.581 0.309,-0.589 0.292,-0.596C0.275,-0.603 0.256,-0.607 0.237,-0.607C0.215,-0.607 0.199,-0.6 0.187,-0.586C0.176,-0.572 0.17,-0.552 0.17,-0.528C0.17,-0.504 0.177,-0.483 0.191,-0.465C0.205,-0.447 0.229,-0.427 0.263,-0.404C0.31,-0.373 0.342,-0.341 0.361,-0.308C0.379,-0.276 0.388,-0.238 0.388,-0.197Z" style="fill:rgb(111,27,69);fill-rule:nonzero;"/>
        </g>
        <g transform="matrix(16,0,0,16,346.613,112.712)">
            <path d="M0.502,-0.714L0.502,-0.252C0.502,-0.167 0.483,-0.102 0.444,-0.057C0.406,-0.013 0.35,0.01 0.278,0.01C0.207,0.01 0.153,-0.012 0.116,-0.057C0.079,-0.101 0.06,-0.167 0.06,-0.254L0.06,-0.714L0.192,-0.714L0.192,-0.244C0.192,-0.153 0.222,-0.108 0.282,-0.108C0.31,-0.108 0.332,-0.119 0.347,-0.143C0.362,-0.166 0.37,-0.199 0.37,-0.241L0.37,-0.714L0.502,-0.714Z" style="fill:rgb(111,27,69);fill-rule:nonzero;"/>
        </g>
        <g transform="matrix(16,0,0,16,355.605,112.712)">
            <path d="M0.318,-0L0.182,-0.608L0.177,-0.608C0.183,-0.561 0.186,-0.518 0.186,-0.479L0.186,-0L0.063,-0L0.063,-0.714L0.267,-0.714L0.389,-0.153L0.393,-0.153L0.514,-0.714L0.721,-0.714L0.721,-0L0.595,-0L0.595,-0.484C0.595,-0.524 0.597,-0.565 0.602,-0.607L0.598,-0.607L0.463,-0L0.318,-0Z" style="fill:rgb(111,27,69);fill-rule:nonzero;"/>
        </g>
        <g transform="matrix(16,0,0,16,368.152,112.712)">
            <path d="M0.385,-0L0.063,-0L0.063,-0.714L0.385,-0.714L0.385,-0.599L0.196,-0.599L0.196,-0.429L0.371,-0.429L0.371,-0.314L0.196,-0.314L0.196,-0.116L0.385,-0.116L0.385,-0Z" style="fill:rgb(111,27,69);fill-rule:nonzero;"/>
        </g>
        <g transform="matrix(16,0,0,16,374.965,112.712)">
            <path d="M0.196,-0.278L0.196,-0L0.063,-0L0.063,-0.714L0.237,-0.714C0.31,-0.714 0.365,-0.696 0.4,-0.662C0.435,-0.627 0.452,-0.574 0.452,-0.502C0.452,-0.412 0.422,-0.349 0.361,-0.313L0.498,-0L0.356,-0L0.243,-0.278L0.196,-0.278ZM0.196,-0.392L0.23,-0.392C0.261,-0.392 0.284,-0.401 0.297,-0.419C0.311,-0.436 0.318,-0.463 0.318,-0.498C0.318,-0.535 0.311,-0.56 0.296,-0.576C0.282,-0.591 0.259,-0.599 0.229,-0.599L0.196,-0.599L0.196,-0.392Z" style="fill:rgb(111,27,69);fill-rule:nonzero;"/>
        </g>
        <g transform="matrix(16,0,0,16,386.918,112.712)">
            <path d="M0.517,-0.364C0.517,-0.246 0.493,-0.156 0.445,-0.094C0.397,-0.031 0.328,-0 0.238,-0L0.063,-0L0.063,-0.714L0.254,-0.714C0.337,-0.714 0.402,-0.683 0.448,-0.622C0.494,-0.56 0.517,-0.474 0.517,-0.364ZM0.381,-0.36C0.381,-0.519 0.337,-0.599 0.249,-0.599L0.196,-0.599L0.196,-0.116L0.239,-0.116C0.287,-0.116 0.323,-0.136 0.346,-0.177C0.369,-0.218 0.381,-0.278 0.381,-0.36Z" style="fill:rgb(111,27,69);fill-rule:nonzero;"/>
        </g>
        <g transform="matrix(16,0,0,16,395.848,112.712)">
            <path d="M0.502,-0.714L0.502,-0.252C0.502,-0.167 0.483,-0.102 0.444,-0.057C0.406,-0.013 0.35,0.01 0.278,0.01C0.207,0.01 0.153,-0.012 0.116,-0.057C0.079,-0.101 0.06,-0.167 0.06,-0.254L0.06,-0.714L0.192,-0.714L0.192,-0.244C0.192,-0.153 0.222,-0.108 0.282,-0.108C0.31,-0.108 0.332,-0.119 0.347,-0.143C0.362,-0.166 0.37,-0.199 0.37,-0.241L0.37,-0.714L0.502,-0.714Z" style="fill:rgb(111,27,69);fill-rule:nonzero;"/>
        </g>
        <g transform="matrix(16,0,0,16,404.84,112.712)">
            <path d="M0.282,-0L0.15,-0L0.15,-0.597L0.013,-0.597L0.013,-0.714L0.419,-0.714L0.419,-0.597L0.282,-0.597L0.282,-0Z" style="fill:rgb(111,27,69);fill-rule:nonzero;"/>
        </g>
        <g transform="matrix(16,0,0,16,411.754,112.712)">
            <path d="M0.235,-0.432L0.33,-0.714L0.469,-0.714L0.3,-0.286L0.3,-0L0.169,-0L0.169,-0.281L0,-0.714L0.14,-0.714L0.235,-0.432Z" style="fill:rgb(111,27,69);fill-rule:nonzero;"/>
        </g>
    </g>
</svg>
