<?xml version="1.0" encoding="UTF-8" standalone="no"?>
<!DOCTYPE svg PUBLIC "-//W3C//DTD SVG 1.1//EN" "http://www.w3.org/Graphics/SVG/1.1/DTD/svg11.dtd">
<svg width="100%" height="100%" viewBox="0 0 2870 908" version="1.1" xmlns="http://www.w3.org/2000/svg" xmlns:xlink="http://www.w3.org/1999/xlink" xml:space="preserve" xmlns:serif="http://www.serif.com/" style="fill-rule:evenodd;clip-rule:evenodd;stroke-linecap:round;stroke-linejoin:round;stroke-miterlimit:1.41421;">
    <g transform="matrix(7.08976,0,0,7.08976,-419.25,-3353.78)">
        <g transform="matrix(66.3347,0,0,66.3347,189.262,586.022)">
            <path d="M0.09,-0L0.09,-0.7L0.274,-0.7C0.329,-0.7 0.373,-0.685 0.405,-0.656C0.438,-0.626 0.454,-0.587 0.454,-0.538C0.454,-0.497 0.443,-0.462 0.422,-0.432C0.4,-0.403 0.37,-0.382 0.331,-0.369L0.331,-0.367C0.38,-0.363 0.418,-0.345 0.446,-0.315C0.474,-0.285 0.488,-0.247 0.488,-0.2C0.488,-0.141 0.469,-0.093 0.431,-0.056C0.393,-0.019 0.342,-0 0.278,-0L0.09,-0ZM0.138,-0.656L0.138,-0.385L0.236,-0.385C0.287,-0.385 0.327,-0.398 0.358,-0.424C0.389,-0.45 0.404,-0.485 0.404,-0.53C0.404,-0.614 0.354,-0.656 0.255,-0.656L0.138,-0.656ZM0.138,-0.341L0.138,-0.044L0.268,-0.044C0.323,-0.044 0.365,-0.057 0.394,-0.083C0.423,-0.11 0.438,-0.147 0.438,-0.196C0.438,-0.292 0.372,-0.341 0.241,-0.341L0.138,-0.341Z" style="fill:rgb(95,95,95);fill-rule:nonzero;"/>
        </g>
        <g transform="matrix(66.3347,0,0,66.3347,221.497,586.022)">
            <path d="M0.379,-0L0.379,-0.1L0.377,-0.1C0.361,-0.066 0.338,-0.039 0.307,-0.018C0.277,0.002 0.243,0.012 0.206,0.012C0.159,0.012 0.121,-0.001 0.093,-0.028C0.066,-0.055 0.052,-0.088 0.052,-0.129C0.052,-0.216 0.11,-0.269 0.225,-0.287L0.379,-0.31C0.379,-0.417 0.339,-0.471 0.258,-0.471C0.203,-0.471 0.149,-0.449 0.097,-0.405L0.097,-0.459C0.116,-0.474 0.141,-0.486 0.173,-0.497C0.204,-0.507 0.234,-0.512 0.262,-0.512C0.314,-0.512 0.353,-0.496 0.382,-0.464C0.41,-0.432 0.424,-0.386 0.424,-0.325L0.424,-0L0.379,-0ZM0.241,-0.249C0.189,-0.242 0.152,-0.229 0.131,-0.213C0.11,-0.196 0.099,-0.169 0.099,-0.131C0.099,-0.101 0.109,-0.077 0.129,-0.058C0.148,-0.038 0.176,-0.029 0.211,-0.029C0.259,-0.029 0.299,-0.047 0.331,-0.082C0.363,-0.118 0.379,-0.164 0.379,-0.22L0.379,-0.269L0.241,-0.249Z" style="fill:rgb(95,95,95);fill-rule:nonzero;"/>
        </g>
        <g transform="matrix(66.3347,0,0,66.3347,250.429,586.022)">
            <path d="M0.42,-0L0.42,-0.291C0.42,-0.411 0.377,-0.471 0.29,-0.471C0.242,-0.471 0.202,-0.454 0.171,-0.418C0.14,-0.383 0.125,-0.339 0.125,-0.287L0.125,-0L0.08,-0L0.08,-0.5L0.125,-0.5L0.125,-0.409L0.127,-0.409C0.163,-0.478 0.22,-0.512 0.298,-0.512C0.352,-0.512 0.393,-0.494 0.422,-0.458C0.451,-0.422 0.465,-0.371 0.465,-0.304L0.465,-0L0.42,-0Z" style="fill:rgb(95,95,95);fill-rule:nonzero;"/>
        </g>
        <g transform="matrix(66.3347,0,0,66.3347,282.081,586.022)">
            <path d="M0.366,-0L0.127,-0.247L0.125,-0.247L0.125,-0L0.08,-0L0.08,-0.74L0.125,-0.74L0.125,-0.263L0.127,-0.263L0.354,-0.5L0.412,-0.5L0.175,-0.258L0.431,-0L0.366,-0Z" style="fill:rgb(95,95,95);fill-rule:nonzero;"/>
        </g>
    </g>
    <g transform="matrix(1,0,0,1,-68.9607,-50.3573)">
        <g transform="matrix(4.04956,1.37357,-1.37357,4.04956,-949.845,-1091.52)">
            <path d="M445.587,130.837L456.786,197.983L434.387,197.983L445.587,130.837Z" style="fill:rgb(33,89,172);"/>
        </g>
        <g transform="matrix(4.04956,1.37357,1.37357,-4.04956,-1617.16,875.834)">
            <path d="M445.587,130.837L456.786,197.983L434.387,197.983L445.587,130.837Z" style="fill:rgb(33,89,172);"/>
        </g>
        <g transform="matrix(0.474381,0.961377,2.85769,-1.4101,-437.965,433.954)">
            <path d="M445.587,130.837L456.786,197.983L434.387,197.983L445.587,130.837Z" style="fill:rgb(14,77,165);"/>
        </g>
        <g transform="matrix(-0.961377,0.474381,-1.4101,-2.85769,1328.6,1033.16)">
            <path d="M445.587,130.837L456.786,197.983L434.387,197.983L445.587,130.837Z" style="fill:rgb(14,77,165);"/>
        </g>
        <g transform="matrix(-0.474381,-0.961377,-2.85769,1.4101,1484.19,574.448)">
            <path d="M445.587,130.837L456.786,197.983L434.387,197.983L445.587,130.837Z" style="fill:rgb(14,77,165);"/>
        </g>
        <g transform="matrix(0.961377,-0.474381,1.4101,2.85769,-282.374,-24.7556)">
            <path d="M445.587,130.837L456.786,197.983L434.387,197.983L445.587,130.837Z" style="fill:rgb(14,76,165);"/>
        </g>
        <g transform="matrix(1.37357,-4.04956,4.04956,1.37357,-1072.92,1971.98)">
            <path d="M445.587,130.837L456.786,197.983L434.387,197.983L445.587,130.837Z" style="fill:rgb(33,89,172);"/>
        </g>
        <g transform="matrix(1.37357,-4.04956,-4.04956,-1.37357,894.438,2639.29)">
            <path d="M445.587,130.837L456.786,197.983L434.387,197.983L445.587,130.837Z" style="fill:rgb(33,89,172);"/>
        </g>
        <g transform="matrix(4.04956,1.37357,-1.37357,4.04956,-926.508,-1116.63)">
            <circle cx="442.633" cy="250.174" r="43.221" style="fill:rgb(33,89,172);stroke:white;stroke-width:9px;"/>
        </g>
        <g transform="matrix(6.98705,2.36994,-2.36994,6.98705,-2096.59,-2036.89)">
            <circle cx="446.626" cy="211.999" r="9.017" style="fill:rgb(47,108,204);stroke:white;stroke-width:1.49px;"/>
        </g>
        <g transform="matrix(0.777835,0.263835,-0.467055,1.37697,288.101,54.5905)">
            <path d="M445.587,130.837L456.786,197.983L434.387,197.983L445.587,130.837Z" style="fill:white;"/>
        </g>
        <g transform="matrix(0.777835,0.263835,0.467055,-1.37697,62.943,717.868)">
            <path d="M445.587,130.837L456.786,197.983L434.387,197.983L445.587,130.837Z" style="fill:white;"/>
        </g>
        <g transform="matrix(-0.263835,0.777835,-1.37697,-0.467055,969.366,269.201)">
            <path d="M445.587,130.837L456.786,197.983L434.387,197.983L445.587,130.837Z" style="fill:white;"/>
        </g>
        <g transform="matrix(-0.263835,0.777835,1.37697,0.467055,308.167,44.9281)">
            <path d="M445.587,130.837L456.786,197.983L434.387,197.983L445.587,130.837Z" style="fill:white;"/>
        </g>
    </g>
    <g transform="matrix(7.08976,0,0,7.08976,-418.953,-3729.17)">
        <g transform="matrix(66.3347,0,0,66.3347,189.262,586.022)">
            <path d="M0.45,-0L0.152,-0.335C0.146,-0.341 0.142,-0.347 0.14,-0.351L0.138,-0.351L0.138,-0L0.09,-0L0.09,-0.7L0.138,-0.7L0.138,-0.37L0.14,-0.37C0.144,-0.377 0.148,-0.383 0.153,-0.387L0.436,-0.7L0.499,-0.7L0.192,-0.361L0.518,-0L0.45,-0Z" style="fill:rgb(95,95,95);fill-rule:nonzero;"/>
        </g>
        <g transform="matrix(66.3347,0,0,66.3347,220.364,586.022)">
            <path d="M0.42,-0L0.42,-0.291C0.42,-0.411 0.377,-0.471 0.29,-0.471C0.242,-0.471 0.202,-0.454 0.171,-0.418C0.14,-0.383 0.125,-0.339 0.125,-0.287L0.125,-0L0.08,-0L0.08,-0.5L0.125,-0.5L0.125,-0.409L0.127,-0.409C0.163,-0.478 0.22,-0.512 0.298,-0.512C0.352,-0.512 0.393,-0.494 0.422,-0.458C0.451,-0.422 0.465,-0.371 0.465,-0.304L0.465,-0L0.42,-0Z" style="fill:rgb(95,95,95);fill-rule:nonzero;"/>
        </g>
        <g transform="matrix(66.3347,0,0,66.3347,252.016,586.022)">
            <path d="M0.281,0.012C0.208,0.012 0.15,-0.012 0.108,-0.06C0.065,-0.108 0.044,-0.17 0.044,-0.247C0.044,-0.33 0.066,-0.395 0.111,-0.442C0.155,-0.489 0.214,-0.512 0.286,-0.512C0.357,-0.512 0.414,-0.489 0.455,-0.442C0.496,-0.396 0.517,-0.331 0.517,-0.249C0.517,-0.171 0.496,-0.108 0.454,-0.06C0.412,-0.012 0.354,0.012 0.281,0.012ZM0.284,-0.471C0.225,-0.471 0.178,-0.451 0.143,-0.412C0.108,-0.372 0.091,-0.317 0.091,-0.246C0.091,-0.181 0.108,-0.128 0.142,-0.088C0.176,-0.049 0.223,-0.029 0.282,-0.029C0.342,-0.029 0.389,-0.048 0.421,-0.087C0.454,-0.126 0.47,-0.181 0.47,-0.25C0.47,-0.321 0.454,-0.376 0.422,-0.414C0.389,-0.452 0.343,-0.471 0.284,-0.471Z" style="fill:rgb(95,95,95);fill-rule:nonzero;"/>
        </g>
        <g transform="matrix(66.3347,0,0,66.3347,285.384,586.022)">
            <path d="M0.504,-0L0.462,-0L0.353,-0.377C0.35,-0.387 0.347,-0.401 0.345,-0.419L0.343,-0.419C0.342,-0.411 0.339,-0.398 0.333,-0.378L0.211,-0L0.169,-0L0.018,-0.5L0.068,-0.5L0.184,-0.101C0.187,-0.091 0.189,-0.077 0.191,-0.059L0.195,-0.059C0.195,-0.069 0.199,-0.083 0.204,-0.101L0.331,-0.5L0.362,-0.5L0.475,-0.101C0.478,-0.092 0.48,-0.078 0.482,-0.059L0.486,-0.059C0.486,-0.069 0.489,-0.083 0.494,-0.101L0.613,-0.5L0.659,-0.5L0.504,-0Z" style="fill:rgb(95,95,95);fill-rule:nonzero;"/>
        </g>
        <g transform="matrix(66.3347,0,0,66.3347,326.43,586.022)">
            <rect x="0.08" y="-0.74" width="0.045" height="0.74" style="fill:rgb(95,95,95);fill-rule:nonzero;"/>
        </g>
        <g transform="matrix(66.3347,0,0,66.3347,336.186,586.022)">
            <path d="M0.091,-0.248C0.091,-0.179 0.107,-0.126 0.138,-0.087C0.17,-0.048 0.214,-0.029 0.269,-0.029C0.325,-0.029 0.38,-0.049 0.433,-0.091L0.433,-0.043C0.381,-0.006 0.324,0.012 0.26,0.012C0.195,0.012 0.143,-0.011 0.104,-0.057C0.064,-0.103 0.044,-0.169 0.044,-0.253C0.044,-0.326 0.065,-0.387 0.106,-0.437C0.148,-0.487 0.202,-0.512 0.268,-0.512C0.33,-0.512 0.378,-0.49 0.411,-0.447C0.444,-0.403 0.461,-0.344 0.461,-0.268L0.461,-0.248L0.091,-0.248ZM0.414,-0.289C0.412,-0.347 0.398,-0.391 0.373,-0.423C0.347,-0.455 0.311,-0.471 0.266,-0.471C0.219,-0.471 0.18,-0.455 0.15,-0.424C0.119,-0.393 0.1,-0.348 0.093,-0.289L0.414,-0.289Z" style="fill:rgb(95,95,95);fill-rule:nonzero;"/>
        </g>
        <g transform="matrix(66.3347,0,0,66.3347,365.83,586.022)">
            <path d="M0.435,-0L0.435,-0.091L0.433,-0.091C0.417,-0.059 0.393,-0.034 0.361,-0.016C0.329,0.003 0.293,0.012 0.253,0.012C0.191,0.012 0.141,-0.01 0.102,-0.055C0.063,-0.1 0.044,-0.162 0.044,-0.241C0.044,-0.322 0.065,-0.387 0.108,-0.437C0.15,-0.487 0.205,-0.512 0.273,-0.512C0.348,-0.512 0.401,-0.481 0.433,-0.42L0.435,-0.42L0.435,-0.74L0.48,-0.74L0.48,-0L0.435,-0ZM0.435,-0.304C0.435,-0.351 0.42,-0.39 0.391,-0.423C0.361,-0.455 0.322,-0.471 0.272,-0.471C0.22,-0.471 0.176,-0.451 0.142,-0.411C0.108,-0.371 0.091,-0.315 0.091,-0.245C0.091,-0.176 0.106,-0.123 0.137,-0.085C0.168,-0.048 0.207,-0.029 0.256,-0.029C0.313,-0.029 0.357,-0.046 0.388,-0.082C0.419,-0.117 0.435,-0.16 0.435,-0.211L0.435,-0.304Z" style="fill:rgb(95,95,95);fill-rule:nonzero;"/>
        </g>
        <g transform="matrix(66.3347,0,0,66.3347,399.134,586.022)">
            <path d="M0.48,-0.037C0.48,0.057 0.459,0.126 0.418,0.169C0.377,0.213 0.314,0.235 0.227,0.235C0.179,0.235 0.129,0.222 0.078,0.197L0.078,0.15C0.131,0.179 0.181,0.194 0.228,0.194C0.366,0.194 0.435,0.121 0.435,-0.025L0.435,-0.09L0.433,-0.09C0.394,-0.022 0.334,0.012 0.253,0.012C0.191,0.012 0.141,-0.01 0.102,-0.055C0.063,-0.099 0.044,-0.161 0.044,-0.241C0.044,-0.321 0.065,-0.386 0.107,-0.437C0.149,-0.487 0.204,-0.512 0.273,-0.512C0.347,-0.512 0.4,-0.482 0.433,-0.421L0.435,-0.421L0.435,-0.5L0.48,-0.5L0.48,-0.037ZM0.435,-0.308C0.435,-0.352 0.42,-0.391 0.39,-0.423C0.361,-0.455 0.322,-0.471 0.274,-0.471C0.219,-0.471 0.175,-0.451 0.141,-0.409C0.108,-0.368 0.091,-0.313 0.091,-0.245C0.091,-0.177 0.106,-0.124 0.137,-0.086C0.168,-0.048 0.208,-0.029 0.259,-0.029C0.313,-0.029 0.355,-0.046 0.387,-0.081C0.419,-0.116 0.435,-0.159 0.435,-0.209L0.435,-0.308Z" style="fill:rgb(95,95,95);fill-rule:nonzero;"/>
        </g>
        <g transform="matrix(66.3347,0,0,66.3347,432.438,586.022)">
            <path d="M0.091,-0.248C0.091,-0.179 0.107,-0.126 0.138,-0.087C0.17,-0.048 0.214,-0.029 0.269,-0.029C0.325,-0.029 0.38,-0.049 0.433,-0.091L0.433,-0.043C0.381,-0.006 0.324,0.012 0.26,0.012C0.195,0.012 0.143,-0.011 0.104,-0.057C0.064,-0.103 0.044,-0.169 0.044,-0.253C0.044,-0.326 0.065,-0.387 0.106,-0.437C0.148,-0.487 0.202,-0.512 0.268,-0.512C0.33,-0.512 0.378,-0.49 0.411,-0.447C0.444,-0.403 0.461,-0.344 0.461,-0.268L0.461,-0.248L0.091,-0.248ZM0.414,-0.289C0.412,-0.347 0.398,-0.391 0.373,-0.423C0.347,-0.455 0.311,-0.471 0.266,-0.471C0.219,-0.471 0.18,-0.455 0.15,-0.424C0.119,-0.393 0.1,-0.348 0.093,-0.289L0.414,-0.289Z" style="fill:rgb(95,95,95);fill-rule:nonzero;"/>
        </g>
    </g>
    <g transform="matrix(13.2166,0,0,13.2166,1811.13,708.203)">
        <g transform="matrix(9.33333,0,0,9.33333,0,7.19596)">
            <path d="M0.423,0.018C0.321,0.018 0.233,-0.019 0.159,-0.094C0.085,-0.169 0.048,-0.258 0.048,-0.361C0.048,-0.466 0.085,-0.556 0.16,-0.63C0.234,-0.704 0.323,-0.741 0.428,-0.741C0.532,-0.741 0.622,-0.704 0.696,-0.63C0.77,-0.556 0.807,-0.466 0.807,-0.362C0.807,-0.256 0.77,-0.166 0.696,-0.093C0.621,-0.019 0.53,0.018 0.423,0.018ZM0.423,-0.036C0.529,-0.036 0.614,-0.075 0.676,-0.153C0.727,-0.216 0.753,-0.286 0.753,-0.362C0.753,-0.451 0.721,-0.528 0.657,-0.591C0.594,-0.655 0.517,-0.687 0.428,-0.687C0.338,-0.687 0.262,-0.655 0.198,-0.591C0.134,-0.527 0.103,-0.451 0.103,-0.361C0.103,-0.273 0.134,-0.196 0.198,-0.132C0.261,-0.068 0.336,-0.036 0.423,-0.036ZM0.566,-0.168C0.521,-0.153 0.479,-0.145 0.442,-0.145C0.38,-0.145 0.33,-0.165 0.291,-0.205C0.252,-0.245 0.232,-0.296 0.232,-0.359C0.232,-0.425 0.251,-0.477 0.289,-0.516C0.328,-0.556 0.379,-0.575 0.442,-0.575C0.473,-0.575 0.51,-0.571 0.554,-0.563L0.566,-0.56L0.566,-0.5C0.522,-0.518 0.482,-0.527 0.447,-0.527C0.404,-0.527 0.37,-0.512 0.344,-0.481C0.317,-0.451 0.304,-0.41 0.304,-0.36C0.304,-0.311 0.318,-0.271 0.345,-0.242C0.373,-0.213 0.41,-0.199 0.456,-0.199C0.493,-0.199 0.53,-0.209 0.566,-0.229L0.566,-0.168Z" style="fill:rgb(96,96,96);fill-rule:nonzero;"/>
        </g>
    </g>
</svg>
